<?xml version="1.0" encoding="UTF-8"?><svg id="a" xmlns="http://www.w3.org/2000/svg" viewBox="0 0 130.07 126.31"><defs><style>.b{fill:#fff;}</style></defs><g><path class="b" d="M83.47,42.07H48.62V7.22h34.86V42.07Zm-33.86-1h32.86V8.22H49.62V41.07Z"/><path class="b" d="M65.04,49.29l-24.65-24.65L65.04,0l24.65,24.65-24.65,24.65Zm-23.23-24.65l23.23,23.23,23.23-23.23L65.04,1.41l-23.23,23.23Z"/><path class="b" d="M75.62,34.67h-20.04V14.63h20.04v20.04Zm-19.04-1h18.04V15.63h-18.04v18.04Z"/><path class="b" d="M65.04,38.82l-14.17-14.17,14.17-14.17,14.17,14.17-14.17,14.17Zm-12.76-14.17l12.76,12.76,12.76-12.76-12.76-12.76-12.76,12.76Z"/></g><g><polygon class="b" points="24.4 67.9 56.79 67.9 56.79 69.57 24.79 69.57 24.79 104.53 11.17 116.22 20.42 102.21 20.42 64.18 24.4 67.9"/><polygon class="b" points="52.19 71.5 52.19 106.16 60.06 114.04 63.34 114.04 63.34 101.31 60.38 108.9 56.79 101.57 56.79 71.5 52.19 71.5"/><polygon class="b" points="48.82 78.7 44.45 72.53 28.39 78.7 48.82 78.7"/><polygon class="b" points="36.23 79.21 36.23 104.27 25.95 105.68 28.39 111.72 45.22 103.5 40.4 103.88 40.4 79.21 36.23 79.21"/><polygon class="b" points="45.22 99.77 47.28 110.44 50.75 107.89 45.22 99.77"/><g><polygon class="b" points="11.12 55.26 11.12 98.69 0 117.77 16.26 102.96 16.26 58.9 11.12 55.26"/><rect class="b" x="17.47" y="58.91" width="45.88" height="1.93"/><polygon class="b" points="39.68 58.09 39.68 47.92 31.12 54.1 31.12 58.09 39.68 58.09"/><polygon class="b" points="4.5 78.7 9.76 74.11 1.79 62.66 4.5 78.7"/><polygon class="b" points=".61 88.52 2.64 95.47 9.76 84.11 .61 88.52"/></g><g><polygon class="b" points="77.06 54.99 77.06 98.42 65.94 117.5 82.21 102.69 82.21 58.63 77.06 54.99"/><rect class="b" x="83.41" y="58.64" width="45.88" height="1.93"/><polygon class="b" points="105.62 57.82 105.62 47.65 97.06 53.83 97.06 57.82 105.62 57.82"/><polygon class="b" points="70.45 78.43 75.7 73.84 67.73 62.39 70.45 78.43"/><polygon class="b" points="66.55 88.25 68.58 95.2 75.7 83.84 66.55 88.25"/></g><polygon class="b" points="28.74 82.58 28.74 98.41 33.13 98.41 33.13 85.76 28.74 82.58"/><rect class="b" x="44.41" y="85.33" width="4.41" height="13.08"/><rect class="b" x="33.98" y="85.74" width="2.48" height=".8"/><polygon class="b" points="44.41 85.74 41.24 85.74 41.24 86.54 44.6 86.54 44.41 85.74"/><polygon class="b" points="32.83 97.29 35.76 97.29 35.76 96.6 33.13 96.6 32.83 97.29"/><polygon class="b" points="40.16 97.29 43.37 97.29 43.37 96.6 40.4 96.6 40.16 97.29"/><polygon class="b" points="85.45 77.24 102.92 77.24 106.35 73.11 101.34 69.11 101.34 72.53 90.91 72.53 90.91 67.65 90.91 65.47 85.45 63.04 85.45 77.24"/><polygon class="b" points="102.87 67.65 100.07 64.85 91.87 68.69 102.87 67.65"/><polygon class="b" points="83.98 79.07 83.98 104.2 88.96 104.2 88.96 83.84 83.98 79.07"/><rect class="b" x="89.69" y="101.29" width="17.23" height="1.66"/><polygon class="b" points="91.04 79.07 91.04 97.34 95.9 97.34 95.9 81.56 91.04 79.07"/><polygon class="b" points="97.06 82.39 100.69 82.39 100.69 97.34 105.62 97.34 105.62 79.07 101 79.07 101 81.36 97.06 81.36 97.06 82.39"/><polygon class="b" points="95.63 87.4 100.69 83.9 95.9 83.9 95.63 87.4"/><polygon class="b" points="95.9 92.15 100.69 89.11 95.9 89.11 95.9 92.15"/><polygon class="b" points="95.63 96.07 100.69 96.07 100.69 95.25 95.9 95.25 95.63 96.07"/><rect class="b" x="106.92" y="67.45" width="21.95" height="1.97"/><polygon class="b" points="115.38 75.45 121.08 70.41 115.38 70.41 115.38 75.45"/><polygon class="b" points="108.92 74.68 108.92 102.12 127.99 102.12 127.99 99.9 114.29 99.9 114.29 79.07 108.92 74.68"/><polygon class="b" points="115.71 79.07 121.08 79.07 121.08 99.13 127.99 99.13 127.99 74.68 115.71 79.07"/><polygon class="b" points="112.97 86.91 121.85 86.91 121.85 82.36 114.29 82.36 112.97 86.91"/><polygon class="b" points="112.97 94.52 121.08 94.52 121.08 89.52 114.29 89.52 112.97 94.52"/><polygon class="b" points="83.41 113.05 94.66 106.15 88.96 104.2 83.41 113.05"/><polygon class="b" points="98.16 104.2 102.45 113.05 106.92 109.76 98.16 104.2"/><polygon class="b" points="108.15 113.05 117.41 104.83 112.97 102.12 108.15 113.05"/><polygon class="b" points="121.08 102.95 125.03 113.93 130.07 110.53 121.08 102.95"/><g><path class="b" d="M34.77,121.28c-.46,.4-.72,.72-1.06,1.14-.32-.39-.78-.88-1.01-.9-.29,0-1.08-.01-2,0-.02,1.38,.01,3.42,.1,4.4h-2.38c.17-2.7,.2-5.57,.1-7.73,.01-.33-.58-.64-.85-.78,.37-.2,.98-.58,1.36-.98,.26,.15,.7,.32,1.09,.43,1.15,.04,2.35,.05,3.38,.01,.3-.12,.58-.26,.82-.46,.23,.4,.68,.96,.95,1.21-.37,.26-.87,.63-1.26,.98-.34-.61-.76-1.16-1.06-1.22-.71-.02-1.17-.04-2.15,0-.12,.9-.1,2.7-.1,3.64,.88,0,1.61-.02,1.95-.05,.29,0,.59-.32,1.09-1.07,.33,.57,.66,.98,1.03,1.39Z"/><path class="b" d="M42.47,118c-.05-.31-.59-.53-.87-.68,.5-.13,1.51-.59,1.85-.98,.33,.31,1.71,.79,2.29,.98-.24,.11-.65,.37-.74,.68-.08,.84-.13,2.37-.13,3.51,0,1.36,0,3.1,.06,4.32-1.28,.06-2.85,.21-4.26,.21-3.39,0-3.88-.55-3.8-4.71-.01-1.28,.06-2.57,0-3.31,0-.27-.58-.56-.84-.7,.49-.13,1.48-.59,1.81-.98,.4,.36,1.72,.79,2.28,.98-.23,.11-.74,.37-.78,.68-.07,.84-.17,1.88-.18,3.04,0,3.72,.36,4.57,1.83,4.57,.55,0,1.32-.07,1.46-.58,.06-.78,.11-2.85,.11-3.96,0-1.21-.04-2.3-.1-3.06Z"/></g><g><path class="b" d="M100.06,116.32c.24,.42,.68,1.07,.95,1.32-.45,.23-.95,.64-1.3,1-.27-.53-.59-1.13-1.07-1.21-.32-.06-.21-.07-.93-.1-.13,2.11-.14,6.63,.04,8.5h-2.5c.15-1.98,.23-6.55,.11-8.52-.71,.02-.72,.05-1.06,.11-.47,.08-.79,.68-1.07,1.21-.36-.36-.85-.77-1.3-1,.28-.25,.71-.9,.95-1.32,.17,.19,.56,.4,.85,.51,1.33,.12,4.28,.08,5.48,0,.31-.11,.69-.32,.85-.51Z"/><path class="b" d="M108.28,124.99c-.33,.37-.81,1.02-.97,1.32-.26-.18-.64-.34-.87-.38-.52-.05-1.06-.05-2-.05s-2.28-.01-3.12,.04c.24-2.55,.21-6.04,.05-7.74-.05-.34-.47-.56-.75-.7,.46-.32,.98-.74,1.35-1.14,.14,.14,.83,.39,1.25,.52,.94,.04,2.47,0,2.94-.02,.31-.11,.75-.26,.91-.46,.28,.42,.72,.94,1.01,1.19-.42,.3-.96,.76-1.38,1.17-.27-.57-1.07-1.35-1.48-1.36-.45-.02-.97-.02-1.52,.01-.06,1-.1,2.34-.05,3.36,.63,.01,1.2,.01,1.68-.04,.28-.15,.7-.64,1.02-1.09,.32,.51,.72,1,1.11,1.35-.49,.39-.77,.84-1.06,1.22-.39-.43-.82-.9-1.04-.94-.27,0-1.03-.05-1.73,.01,.01,.46,.01,2.78,.04,3.23,.01,.72,.18,.92,.9,.92,.85,.01,.7-.01,1.04-.04,.31-.11,.85-.93,1.21-1.58,.33,.38,1.1,.97,1.45,1.2Z"/><path class="b" d="M114.83,123.74c.04-2.06,.06-3.59,.04-5.17-.07-.47-.7-.84-1.26-1.13,.46-.25,.97-.66,1.32-1.08,.51,.43,.87,.75,1.52,1.01-.45,.3-.77,.65-.82,1.09-.14,2.69-.24,5.6-.1,6.78-.7,.21-1.4,.4-2.15,.78-1.16-2.25-3.08-5.41-4.52-7.54,.06,2.55,.06,5.08,.21,7.39h-.9c.15-1.87,.23-5.8,.08-7.63-.08-.34-.38-.59-.78-.83,1.01-.25,1.93-.65,2.74-1.03,.65,1.25,3.71,6.12,4.61,7.35Z"/></g></g></svg>