<?xml version="1.0" encoding="UTF-8"?><svg id="a" xmlns="http://www.w3.org/2000/svg" viewBox="0 0 243.78 155.32"><defs><style>.b{fill:#fff;}.c{fill:#bae1e3;}</style></defs><rect class="c" width="243.78" height="155.32"/><g><path class="b" d="M140.32,55.84h-34.86V20.98h34.86V55.84Zm-33.86-1h32.86V21.98h-32.86V54.84Z"/><path class="b" d="M121.89,63.05l-24.65-24.65,24.65-24.65,24.65,24.65-24.65,24.65Zm-23.23-24.65l23.23,23.23,23.23-23.23-23.23-23.23-23.23,23.23Z"/><path class="b" d="M132.48,48.43h-20.04V28.39h20.04v20.04Zm-19.04-1h18.04V29.39h-18.04v18.04Z"/><path class="b" d="M121.89,52.58l-14.17-14.17,14.17-14.17,14.17,14.17-14.17,14.17Zm-12.76-14.17l12.76,12.76,12.76-12.76-12.76-12.76-12.76,12.76Z"/></g><g><polygon class="b" points="81.26 81.66 113.64 81.66 113.64 83.34 81.64 83.34 81.64 118.29 68.02 129.98 77.27 115.97 77.27 77.94 81.26 81.66"/><polygon class="b" points="109.05 85.26 109.05 119.93 116.92 127.8 120.19 127.8 120.19 115.08 117.24 122.66 113.64 115.33 113.64 85.26 109.05 85.26"/><polygon class="b" points="105.67 92.46 101.3 86.29 85.24 92.46 105.67 92.46"/><polygon class="b" points="93.08 92.97 93.08 118.03 82.8 119.44 85.24 125.48 102.07 117.26 97.26 117.65 97.26 92.97 93.08 92.97"/><polygon class="b" points="102.07 113.53 104.13 124.2 107.6 121.65 102.07 113.53"/><g><polygon class="b" points="67.97 69.02 67.97 112.46 56.85 131.53 73.12 116.72 73.12 72.66 67.97 69.02"/><rect class="b" x="74.32" y="72.67" width="45.88" height="1.93"/><polygon class="b" points="96.53 71.85 96.53 61.68 87.97 67.86 87.97 71.85 96.53 71.85"/><polygon class="b" points="61.36 92.46 66.61 87.87 58.64 76.43 61.36 92.46"/><polygon class="b" points="57.46 102.28 59.49 109.23 66.61 97.87 57.46 102.28"/></g><g><polygon class="b" points="133.91 68.75 133.91 112.19 122.8 131.27 139.06 116.45 139.06 72.4 133.91 68.75"/><rect class="b" x="140.26" y="72.4" width="45.88" height="1.93"/><polygon class="b" points="162.48 71.58 162.48 61.41 153.91 67.6 153.91 71.58 162.48 71.58"/><polygon class="b" points="127.3 92.19 132.56 87.6 124.59 76.16 127.3 92.19"/><polygon class="b" points="123.4 102.01 125.44 108.96 132.56 97.6 123.4 102.01"/></g><polygon class="b" points="85.6 96.34 85.6 112.18 89.99 112.18 89.99 99.52 85.6 96.34"/><rect class="b" x="101.26" y="99.09" width="4.41" height="13.08"/><rect class="b" x="90.83" y="99.5" width="2.48" height=".8"/><polygon class="b" points="101.26 99.5 98.1 99.5 98.1 100.3 101.45 100.3 101.26 99.5"/><polygon class="b" points="89.68 111.06 92.61 111.06 92.61 110.36 89.99 110.36 89.68 111.06"/><polygon class="b" points="97.01 111.06 100.23 111.06 100.23 110.36 97.26 110.36 97.01 111.06"/><polygon class="b" points="142.3 91 159.78 91 163.2 86.87 158.19 82.87 158.19 86.29 147.76 86.29 147.76 81.41 147.76 79.23 142.3 76.8 142.3 91"/><polygon class="b" points="159.72 81.41 156.92 78.61 148.72 82.45 159.72 81.41"/><polygon class="b" points="140.83 92.83 140.83 117.96 145.81 117.96 145.81 97.6 140.83 92.83"/><rect class="b" x="146.54" y="115.05" width="17.23" height="1.66"/><polygon class="b" points="147.89 92.83 147.89 111.1 152.75 111.1 152.75 95.32 147.89 92.83"/><polygon class="b" points="153.91 96.16 157.54 96.16 157.54 111.1 162.48 111.1 162.48 92.83 157.86 92.83 157.86 95.12 153.91 95.12 153.91 96.16"/><polygon class="b" points="152.49 101.17 157.54 97.66 152.75 97.66 152.49 101.17"/><polygon class="b" points="152.75 105.91 157.54 102.87 152.75 102.87 152.75 105.91"/><polygon class="b" points="152.49 109.83 157.54 109.83 157.54 109.01 152.75 109.01 152.49 109.83"/><rect class="b" x="163.77" y="81.21" width="21.95" height="1.97"/><polygon class="b" points="172.24 89.21 177.94 84.17 172.24 84.17 172.24 89.21"/><polygon class="b" points="165.77 88.44 165.77 115.88 184.84 115.88 184.84 113.66 171.14 113.66 171.14 92.83 165.77 88.44"/><polygon class="b" points="172.57 92.83 177.94 92.83 177.94 112.89 184.84 112.89 184.84 88.44 172.57 92.83"/><polygon class="b" points="169.82 100.67 178.7 100.67 178.7 96.12 171.14 96.12 169.82 100.67"/><polygon class="b" points="169.82 108.29 177.94 108.29 177.94 103.28 171.14 103.28 169.82 108.29"/><polygon class="b" points="140.26 126.81 151.52 119.91 145.81 117.96 140.26 126.81"/><polygon class="b" points="155.02 117.96 159.3 126.81 163.77 123.52 155.02 117.96"/><polygon class="b" points="165 126.81 174.26 118.59 169.82 115.88 165 126.81"/><polygon class="b" points="177.94 116.71 181.88 127.69 186.93 124.29 177.94 116.71"/><g><path class="b" d="M91.62,135.04c-.46,.4-.72,.72-1.06,1.14-.32-.39-.78-.88-1.01-.9-.29,0-1.08-.01-2,0-.02,1.38,.01,3.42,.1,4.4h-2.38c.17-2.7,.2-5.57,.1-7.73,.01-.33-.58-.64-.85-.78,.37-.2,.98-.58,1.36-.98,.26,.15,.7,.32,1.09,.43,1.15,.04,2.35,.05,3.38,.01,.3-.12,.58-.26,.82-.46,.23,.4,.68,.96,.95,1.21-.37,.26-.87,.63-1.26,.98-.34-.61-.76-1.16-1.06-1.22-.71-.02-1.17-.04-2.15,0-.12,.9-.1,2.7-.1,3.64,.88,0,1.61-.02,1.95-.05,.29,0,.59-.32,1.09-1.07,.33,.57,.66,.98,1.03,1.39Z"/><path class="b" d="M99.32,131.77c-.05-.31-.59-.53-.87-.68,.5-.13,1.51-.59,1.85-.98,.33,.31,1.71,.79,2.29,.98-.24,.11-.65,.37-.74,.68-.08,.84-.13,2.37-.13,3.51,0,1.36,0,3.1,.06,4.32-1.28,.06-2.85,.21-4.26,.21-3.39,0-3.88-.55-3.8-4.71-.01-1.28,.06-2.57,0-3.31,0-.27-.58-.56-.84-.7,.49-.13,1.48-.59,1.81-.98,.4,.36,1.72,.79,2.28,.98-.23,.11-.74,.37-.78,.68-.07,.84-.17,1.88-.18,3.04,0,3.72,.36,4.57,1.83,4.57,.55,0,1.32-.07,1.46-.58,.06-.78,.11-2.85,.11-3.96,0-1.21-.04-2.3-.1-3.06Z"/></g><g><path class="b" d="M156.92,130.08c.24,.42,.68,1.07,.95,1.32-.45,.23-.95,.64-1.3,1-.27-.53-.59-1.13-1.07-1.21-.32-.06-.21-.07-.93-.1-.13,2.11-.14,6.63,.04,8.5h-2.5c.15-1.98,.23-6.55,.11-8.52-.71,.02-.72,.05-1.06,.11-.47,.08-.79,.68-1.07,1.21-.36-.36-.85-.77-1.3-1,.28-.25,.71-.9,.95-1.32,.17,.19,.56,.4,.85,.51,1.33,.12,4.28,.08,5.48,0,.31-.11,.69-.32,.85-.51Z"/><path class="b" d="M165.14,138.75c-.33,.37-.81,1.02-.97,1.32-.26-.18-.64-.34-.87-.38-.52-.05-1.06-.05-2-.05s-2.28-.01-3.12,.04c.24-2.55,.21-6.04,.05-7.74-.05-.34-.47-.56-.75-.7,.46-.32,.98-.74,1.35-1.14,.14,.14,.83,.39,1.25,.52,.94,.04,2.47,0,2.94-.02,.31-.11,.75-.26,.91-.46,.28,.42,.72,.94,1.01,1.19-.42,.3-.96,.76-1.38,1.17-.27-.57-1.07-1.35-1.48-1.36-.45-.02-.97-.02-1.52,.01-.06,1-.1,2.34-.05,3.36,.63,.01,1.2,.01,1.68-.04,.28-.15,.7-.64,1.02-1.09,.32,.51,.72,1,1.11,1.35-.49,.39-.77,.84-1.06,1.22-.39-.43-.82-.9-1.04-.94-.27,0-1.03-.05-1.73,.01,.01,.46,.01,2.78,.04,3.23,.01,.72,.18,.92,.9,.92,.85,.01,.7-.01,1.04-.04,.31-.11,.85-.93,1.21-1.58,.33,.38,1.1,.97,1.45,1.2Z"/><path class="b" d="M171.69,137.51c.04-2.06,.06-3.59,.04-5.17-.07-.47-.7-.84-1.26-1.13,.46-.25,.97-.66,1.32-1.08,.51,.43,.87,.75,1.52,1.01-.45,.3-.77,.65-.82,1.09-.14,2.69-.24,5.6-.1,6.78-.7,.21-1.4,.4-2.15,.78-1.16-2.25-3.08-5.41-4.52-7.54,.06,2.55,.06,5.08,.21,7.39h-.9c.15-1.87,.23-5.8,.08-7.63-.08-.34-.38-.59-.78-.83,1.01-.25,1.93-.65,2.74-1.03,.65,1.25,3.71,6.12,4.61,7.35Z"/></g></g></svg>